<svg width="205" height="70" viewBox="0 0 205 70" fill="none" xmlns="http://www.w3.org/2000/svg">
<path d="M203.5 35C203.5 39.1914 201.015 43.4102 196.003 47.4565C191.004 51.4922 183.679 55.1929 174.494 58.3292C156.139 64.5967 130.685 68.5 102.5 68.5C74.3148 68.5 48.8612 64.5967 30.5063 58.3292C21.3214 55.1929 13.9962 51.4922 8.99719 47.4565C3.98517 43.4102 1.5 39.1914 1.5 35C1.5 30.8086 3.98517 26.5898 8.99719 22.5436C13.9962 18.5078 21.3214 14.8071 30.5063 11.6708C48.8612 5.40326 74.3148 1.5 102.5 1.5C130.685 1.5 156.139 5.40326 174.494 11.6708C183.679 14.8071 191.004 18.5078 196.003 22.5436C201.015 26.5898 203.5 30.8086 203.5 35Z" stroke="#FF8A1F" stroke-width="3"/>
</svg>
