<svg width="180" height="177" viewBox="0 0 180 177" fill="none" xmlns="http://www.w3.org/2000/svg">
<g filter="url(#filter0_d_2_312)">
<ellipse cx="90.0005" cy="60.5" rx="30" ry="28.5" fill="white"/>
</g>
<rect x="77.0005" y="50" width="25" height="25" rx="2" fill="url(#paint0_linear_2_312)"/>
<path d="M102 58V51.7895C102 50.6849 101.105 49.7895 100 49.7895H98.9517V47C98.9517 46.4477 98.504 46 97.9517 46H97.5127C96.9604 46 96.5127 46.4477 96.5127 47V49.7895H82.4883V47C82.4883 46.4477 82.0406 46 81.4883 46H81.0493C80.497 46 80.0493 46.4477 80.0493 47V49.7895H79.0005C77.8959 49.7895 77.0005 50.6849 77.0005 51.7895V58H102Z" fill="url(#paint1_linear_2_312)"/>
<rect x="81.0005" y="61" width="3" height="3" fill="white"/>
<rect x="81.0005" y="68" width="3" height="3" fill="white"/>
<rect x="88.0005" y="61" width="3" height="3" fill="white"/>
<rect x="88.0005" y="68" width="3" height="3" fill="white"/>
<rect x="95.0005" y="61" width="3" height="3" fill="white"/>
<rect x="95.0005" y="68" width="3" height="3" fill="white"/>
<defs>
<filter id="filter0_d_2_312" x="0.000488281" y="0" width="180" height="177" filterUnits="userSpaceOnUse" color-interpolation-filters="sRGB">
<feFlood flood-opacity="0" result="BackgroundImageFix"/>
<feColorMatrix in="SourceAlpha" type="matrix" values="0 0 0 0 0 0 0 0 0 0 0 0 0 0 0 0 0 0 127 0" result="hardAlpha"/>
<feOffset dy="28"/>
<feGaussianBlur stdDeviation="30"/>
<feColorMatrix type="matrix" values="0 0 0 0 0.595833 0 0 0 0 0.595833 0 0 0 0 0.595833 0 0 0 0.15 0"/>
<feBlend mode="normal" in2="BackgroundImageFix" result="effect1_dropShadow_2_312"/>
<feBlend mode="normal" in="SourceGraphic" in2="effect1_dropShadow_2_312" result="shape"/>
</filter>
<linearGradient id="paint0_linear_2_312" x1="77.0005" y1="57.5" x2="102" y2="77" gradientUnits="userSpaceOnUse">
<stop stop-color="#8889FF"/>
<stop offset="1" stop-color="#3C3DFF"/>
</linearGradient>
<linearGradient id="paint1_linear_2_312" x1="77.0005" y1="46" x2="102" y2="58" gradientUnits="userSpaceOnUse">
<stop stop-color="#FFA7A7"/>
<stop offset="1" stop-color="#FF6C6C"/>
</linearGradient>
</defs>
</svg>
